<svg xmlns="http://www.w3.org/2000/svg" version="1.1" xmlns:xlink="http://www.w3.org/1999/xlink" xmlns:svgjs="http://svgjs.dev/svgjs" viewBox="0 0 2400 800" opacity="0.34"><defs><linearGradient x1="50%" y1="0%" x2="50%" y2="100%" id="sssurf-grad"><stop stop-color="#12f7d6ff" stop-opacity="1" offset="0%"></stop><stop stop-color="hsla(208, 0%, 59%, 1.00)" stop-opacity="1" offset="100%"></stop></linearGradient></defs><g fill="url(#sssurf-grad)" transform="matrix(1,0,0,1,9.109130859375,-28.97637176513672)"><path d="M-10,10C37.53787878787879,10.416666666666666,125.18939393939395,28.666666666666668,218.1818181818182,12C311.17424242424244,-4.666666666666668,345.4545454545455,-72.08333333333333,436.3636363636364,-70C527.2727272727273,-67.91666666666667,563.6363636363636,13.875,654.5454545454545,22C745.4545454545454,30.125,781.8181818181818,-30.791666666666668,872.7272727272727,-31C963.6363636363637,-31.208333333333332,1000.0000000000001,20.375,1090.909090909091,21C1181.818181818182,21.625,1218.181818181818,-39.875,1309.090909090909,-28C1400,-16.125,1436.3636363636363,83.83333333333333,1527.2727272727273,78C1618.1818181818182,72.16666666666667,1654.5454545454545,-51.833333333333336,1745.4545454545455,-56C1836.3636363636365,-60.166666666666664,1872.7272727272727,52.166666666666664,1963.6363636363637,58C2054.5454545454545,63.833333333333336,2090.909090909091,-24.666666666666668,2181.818181818182,-28C2272.727272727273,-31.333333333333332,2302.462121212121,-47.16666666666666,2400,42C2497.537878787879,131.16666666666666,3254.1666666666665,221.25,2650,400C2045.8333333333335,578.75,156.25,795.8333333333334,-500,900" transform="matrix(1,0,0,1,0,46)" opacity="0.05"></path><path d="M-10,10C37.53787878787879,10.416666666666666,125.18939393939395,28.666666666666668,218.1818181818182,12C311.17424242424244,-4.666666666666668,345.4545454545455,-72.08333333333333,436.3636363636364,-70C527.2727272727273,-67.91666666666667,563.6363636363636,13.875,654.5454545454545,22C745.4545454545454,30.125,781.8181818181818,-30.791666666666668,872.7272727272727,-31C963.6363636363637,-31.208333333333332,1000.0000000000001,20.375,1090.909090909091,21C1181.818181818182,21.625,1218.181818181818,-39.875,1309.090909090909,-28C1400,-16.125,1436.3636363636363,83.83333333333333,1527.2727272727273,78C1618.1818181818182,72.16666666666667,1654.5454545454545,-51.833333333333336,1745.4545454545455,-56C1836.3636363636365,-60.166666666666664,1872.7272727272727,52.166666666666664,1963.6363636363637,58C2054.5454545454545,63.833333333333336,2090.909090909091,-24.666666666666668,2181.818181818182,-28C2272.727272727273,-31.333333333333332,2302.462121212121,-47.16666666666666,2400,42C2497.537878787879,131.16666666666666,3254.1666666666665,221.25,2650,400C2045.8333333333335,578.75,156.25,795.8333333333334,-500,900" transform="matrix(1,0,0,1,0,92)" opacity="0.11"></path><path d="M-10,10C37.53787878787879,10.416666666666666,125.18939393939395,28.666666666666668,218.1818181818182,12C311.17424242424244,-4.666666666666668,345.4545454545455,-72.08333333333333,436.3636363636364,-70C527.2727272727273,-67.91666666666667,563.6363636363636,13.875,654.5454545454545,22C745.4545454545454,30.125,781.8181818181818,-30.791666666666668,872.7272727272727,-31C963.6363636363637,-31.208333333333332,1000.0000000000001,20.375,1090.909090909091,21C1181.818181818182,21.625,1218.181818181818,-39.875,1309.090909090909,-28C1400,-16.125,1436.3636363636363,83.83333333333333,1527.2727272727273,78C1618.1818181818182,72.16666666666667,1654.5454545454545,-51.833333333333336,1745.4545454545455,-56C1836.3636363636365,-60.166666666666664,1872.7272727272727,52.166666666666664,1963.6363636363637,58C2054.5454545454545,63.833333333333336,2090.909090909091,-24.666666666666668,2181.818181818182,-28C2272.727272727273,-31.333333333333332,2302.462121212121,-47.16666666666666,2400,42C2497.537878787879,131.16666666666666,3254.1666666666665,221.25,2650,400C2045.8333333333335,578.75,156.25,795.8333333333334,-500,900" transform="matrix(1,0,0,1,0,138)" opacity="0.17"></path><path d="M-10,10C37.53787878787879,10.416666666666666,125.18939393939395,28.666666666666668,218.1818181818182,12C311.17424242424244,-4.666666666666668,345.4545454545455,-72.08333333333333,436.3636363636364,-70C527.2727272727273,-67.91666666666667,563.6363636363636,13.875,654.5454545454545,22C745.4545454545454,30.125,781.8181818181818,-30.791666666666668,872.7272727272727,-31C963.6363636363637,-31.208333333333332,1000.0000000000001,20.375,1090.909090909091,21C1181.818181818182,21.625,1218.181818181818,-39.875,1309.090909090909,-28C1400,-16.125,1436.3636363636363,83.83333333333333,1527.2727272727273,78C1618.1818181818182,72.16666666666667,1654.5454545454545,-51.833333333333336,1745.4545454545455,-56C1836.3636363636365,-60.166666666666664,1872.7272727272727,52.166666666666664,1963.6363636363637,58C2054.5454545454545,63.833333333333336,2090.909090909091,-24.666666666666668,2181.818181818182,-28C2272.727272727273,-31.333333333333332,2302.462121212121,-47.16666666666666,2400,42C2497.537878787879,131.16666666666666,3254.1666666666665,221.25,2650,400C2045.8333333333335,578.75,156.25,795.8333333333334,-500,900" transform="matrix(1,0,0,1,0,184)" opacity="0.23"></path><path d="M-10,10C37.53787878787879,10.416666666666666,125.18939393939395,28.666666666666668,218.1818181818182,12C311.17424242424244,-4.666666666666668,345.4545454545455,-72.08333333333333,436.3636363636364,-70C527.2727272727273,-67.91666666666667,563.6363636363636,13.875,654.5454545454545,22C745.4545454545454,30.125,781.8181818181818,-30.791666666666668,872.7272727272727,-31C963.6363636363637,-31.208333333333332,1000.0000000000001,20.375,1090.909090909091,21C1181.818181818182,21.625,1218.181818181818,-39.875,1309.090909090909,-28C1400,-16.125,1436.3636363636363,83.83333333333333,1527.2727272727273,78C1618.1818181818182,72.16666666666667,1654.5454545454545,-51.833333333333336,1745.4545454545455,-56C1836.3636363636365,-60.166666666666664,1872.7272727272727,52.166666666666664,1963.6363636363637,58C2054.5454545454545,63.833333333333336,2090.909090909091,-24.666666666666668,2181.818181818182,-28C2272.727272727273,-31.333333333333332,2302.462121212121,-47.16666666666666,2400,42C2497.537878787879,131.16666666666666,3254.1666666666665,221.25,2650,400C2045.8333333333335,578.75,156.25,795.8333333333334,-500,900" transform="matrix(1,0,0,1,0,230)" opacity="0.29"></path><path d="M-10,10C37.53787878787879,10.416666666666666,125.18939393939395,28.666666666666668,218.1818181818182,12C311.17424242424244,-4.666666666666668,345.4545454545455,-72.08333333333333,436.3636363636364,-70C527.2727272727273,-67.91666666666667,563.6363636363636,13.875,654.5454545454545,22C745.4545454545454,30.125,781.8181818181818,-30.791666666666668,872.7272727272727,-31C963.6363636363637,-31.208333333333332,1000.0000000000001,20.375,1090.909090909091,21C1181.818181818182,21.625,1218.181818181818,-39.875,1309.090909090909,-28C1400,-16.125,1436.3636363636363,83.83333333333333,1527.2727272727273,78C1618.1818181818182,72.16666666666667,1654.5454545454545,-51.833333333333336,1745.4545454545455,-56C1836.3636363636365,-60.166666666666664,1872.7272727272727,52.166666666666664,1963.6363636363637,58C2054.5454545454545,63.833333333333336,2090.909090909091,-24.666666666666668,2181.818181818182,-28C2272.727272727273,-31.333333333333332,2302.462121212121,-47.16666666666666,2400,42C2497.537878787879,131.16666666666666,3254.1666666666665,221.25,2650,400C2045.8333333333335,578.75,156.25,795.8333333333334,-500,900" transform="matrix(1,0,0,1,0,276)" opacity="0.35"></path><path d="M-10,10C37.53787878787879,10.416666666666666,125.18939393939395,28.666666666666668,218.1818181818182,12C311.17424242424244,-4.666666666666668,345.4545454545455,-72.08333333333333,436.3636363636364,-70C527.2727272727273,-67.91666666666667,563.6363636363636,13.875,654.5454545454545,22C745.4545454545454,30.125,781.8181818181818,-30.791666666666668,872.7272727272727,-31C963.6363636363637,-31.208333333333332,1000.0000000000001,20.375,1090.909090909091,21C1181.818181818182,21.625,1218.181818181818,-39.875,1309.090909090909,-28C1400,-16.125,1436.3636363636363,83.83333333333333,1527.2727272727273,78C1618.1818181818182,72.16666666666667,1654.5454545454545,-51.833333333333336,1745.4545454545455,-56C1836.3636363636365,-60.166666666666664,1872.7272727272727,52.166666666666664,1963.6363636363637,58C2054.5454545454545,63.833333333333336,2090.909090909091,-24.666666666666668,2181.818181818182,-28C2272.727272727273,-31.333333333333332,2302.462121212121,-47.16666666666666,2400,42C2497.537878787879,131.16666666666666,3254.1666666666665,221.25,2650,400C2045.8333333333335,578.75,156.25,795.8333333333334,-500,900" transform="matrix(1,0,0,1,0,322)" opacity="0.41"></path><path d="M-10,10C37.53787878787879,10.416666666666666,125.18939393939395,28.666666666666668,218.1818181818182,12C311.17424242424244,-4.666666666666668,345.4545454545455,-72.08333333333333,436.3636363636364,-70C527.2727272727273,-67.91666666666667,563.6363636363636,13.875,654.5454545454545,22C745.4545454545454,30.125,781.8181818181818,-30.791666666666668,872.7272727272727,-31C963.6363636363637,-31.208333333333332,1000.0000000000001,20.375,1090.909090909091,21C1181.818181818182,21.625,1218.181818181818,-39.875,1309.090909090909,-28C1400,-16.125,1436.3636363636363,83.83333333333333,1527.2727272727273,78C1618.1818181818182,72.16666666666667,1654.5454545454545,-51.833333333333336,1745.4545454545455,-56C1836.3636363636365,-60.166666666666664,1872.7272727272727,52.166666666666664,1963.6363636363637,58C2054.5454545454545,63.833333333333336,2090.909090909091,-24.666666666666668,2181.818181818182,-28C2272.727272727273,-31.333333333333332,2302.462121212121,-47.16666666666666,2400,42C2497.537878787879,131.16666666666666,3254.1666666666665,221.25,2650,400C2045.8333333333335,578.75,156.25,795.8333333333334,-500,900" transform="matrix(1,0,0,1,0,368)" opacity="0.47"></path><path d="M-10,10C37.53787878787879,10.416666666666666,125.18939393939395,28.666666666666668,218.1818181818182,12C311.17424242424244,-4.666666666666668,345.4545454545455,-72.08333333333333,436.3636363636364,-70C527.2727272727273,-67.91666666666667,563.6363636363636,13.875,654.5454545454545,22C745.4545454545454,30.125,781.8181818181818,-30.791666666666668,872.7272727272727,-31C963.6363636363637,-31.208333333333332,1000.0000000000001,20.375,1090.909090909091,21C1181.818181818182,21.625,1218.181818181818,-39.875,1309.090909090909,-28C1400,-16.125,1436.3636363636363,83.83333333333333,1527.2727272727273,78C1618.1818181818182,72.16666666666667,1654.5454545454545,-51.833333333333336,1745.4545454545455,-56C1836.3636363636365,-60.166666666666664,1872.7272727272727,52.166666666666664,1963.6363636363637,58C2054.5454545454545,63.833333333333336,2090.909090909091,-24.666666666666668,2181.818181818182,-28C2272.727272727273,-31.333333333333332,2302.462121212121,-47.16666666666666,2400,42C2497.537878787879,131.16666666666666,3254.1666666666665,221.25,2650,400C2045.8333333333335,578.75,156.25,795.8333333333334,-500,900" transform="matrix(1,0,0,1,0,414)" opacity="0.53"></path><path d="M-10,10C37.53787878787879,10.416666666666666,125.18939393939395,28.666666666666668,218.1818181818182,12C311.17424242424244,-4.666666666666668,345.4545454545455,-72.08333333333333,436.3636363636364,-70C527.2727272727273,-67.91666666666667,563.6363636363636,13.875,654.5454545454545,22C745.4545454545454,30.125,781.8181818181818,-30.791666666666668,872.7272727272727,-31C963.6363636363637,-31.208333333333332,1000.0000000000001,20.375,1090.909090909091,21C1181.818181818182,21.625,1218.181818181818,-39.875,1309.090909090909,-28C1400,-16.125,1436.3636363636363,83.83333333333333,1527.2727272727273,78C1618.1818181818182,72.16666666666667,1654.5454545454545,-51.833333333333336,1745.4545454545455,-56C1836.3636363636365,-60.166666666666664,1872.7272727272727,52.166666666666664,1963.6363636363637,58C2054.5454545454545,63.833333333333336,2090.909090909091,-24.666666666666668,2181.818181818182,-28C2272.727272727273,-31.333333333333332,2302.462121212121,-47.16666666666666,2400,42C2497.537878787879,131.16666666666666,3254.1666666666665,221.25,2650,400C2045.8333333333335,578.75,156.25,795.8333333333334,-500,900" transform="matrix(1,0,0,1,0,460)" opacity="0.58"></path><path d="M-10,10C37.53787878787879,10.416666666666666,125.18939393939395,28.666666666666668,218.1818181818182,12C311.17424242424244,-4.666666666666668,345.4545454545455,-72.08333333333333,436.3636363636364,-70C527.2727272727273,-67.91666666666667,563.6363636363636,13.875,654.5454545454545,22C745.4545454545454,30.125,781.8181818181818,-30.791666666666668,872.7272727272727,-31C963.6363636363637,-31.208333333333332,1000.0000000000001,20.375,1090.909090909091,21C1181.818181818182,21.625,1218.181818181818,-39.875,1309.090909090909,-28C1400,-16.125,1436.3636363636363,83.83333333333333,1527.2727272727273,78C1618.1818181818182,72.16666666666667,1654.5454545454545,-51.833333333333336,1745.4545454545455,-56C1836.3636363636365,-60.166666666666664,1872.7272727272727,52.166666666666664,1963.6363636363637,58C2054.5454545454545,63.833333333333336,2090.909090909091,-24.666666666666668,2181.818181818182,-28C2272.727272727273,-31.333333333333332,2302.462121212121,-47.16666666666666,2400,42C2497.537878787879,131.16666666666666,3254.1666666666665,221.25,2650,400C2045.8333333333335,578.75,156.25,795.8333333333334,-500,900" transform="matrix(1,0,0,1,0,506)" opacity="0.64"></path><path d="M-10,10C37.53787878787879,10.416666666666666,125.18939393939395,28.666666666666668,218.1818181818182,12C311.17424242424244,-4.666666666666668,345.4545454545455,-72.08333333333333,436.3636363636364,-70C527.2727272727273,-67.91666666666667,563.6363636363636,13.875,654.5454545454545,22C745.4545454545454,30.125,781.8181818181818,-30.791666666666668,872.7272727272727,-31C963.6363636363637,-31.208333333333332,1000.0000000000001,20.375,1090.909090909091,21C1181.818181818182,21.625,1218.181818181818,-39.875,1309.090909090909,-28C1400,-16.125,1436.3636363636363,83.83333333333333,1527.2727272727273,78C1618.1818181818182,72.16666666666667,1654.5454545454545,-51.833333333333336,1745.4545454545455,-56C1836.3636363636365,-60.166666666666664,1872.7272727272727,52.166666666666664,1963.6363636363637,58C2054.5454545454545,63.833333333333336,2090.909090909091,-24.666666666666668,2181.818181818182,-28C2272.727272727273,-31.333333333333332,2302.462121212121,-47.16666666666666,2400,42C2497.537878787879,131.16666666666666,3254.1666666666665,221.25,2650,400C2045.8333333333335,578.75,156.25,795.8333333333334,-500,900" transform="matrix(1,0,0,1,0,552)" opacity="0.70"></path><path d="M-10,10C37.53787878787879,10.416666666666666,125.18939393939395,28.666666666666668,218.1818181818182,12C311.17424242424244,-4.666666666666668,345.4545454545455,-72.08333333333333,436.3636363636364,-70C527.2727272727273,-67.91666666666667,563.6363636363636,13.875,654.5454545454545,22C745.4545454545454,30.125,781.8181818181818,-30.791666666666668,872.7272727272727,-31C963.6363636363637,-31.208333333333332,1000.0000000000001,20.375,1090.909090909091,21C1181.818181818182,21.625,1218.181818181818,-39.875,1309.090909090909,-28C1400,-16.125,1436.3636363636363,83.83333333333333,1527.2727272727273,78C1618.1818181818182,72.16666666666667,1654.5454545454545,-51.833333333333336,1745.4545454545455,-56C1836.3636363636365,-60.166666666666664,1872.7272727272727,52.166666666666664,1963.6363636363637,58C2054.5454545454545,63.833333333333336,2090.909090909091,-24.666666666666668,2181.818181818182,-28C2272.727272727273,-31.333333333333332,2302.462121212121,-47.16666666666666,2400,42C2497.537878787879,131.16666666666666,3254.1666666666665,221.25,2650,400C2045.8333333333335,578.75,156.25,795.8333333333334,-500,900" transform="matrix(1,0,0,1,0,598)" opacity="0.76"></path><path d="M-10,10C37.53787878787879,10.416666666666666,125.18939393939395,28.666666666666668,218.1818181818182,12C311.17424242424244,-4.666666666666668,345.4545454545455,-72.08333333333333,436.3636363636364,-70C527.2727272727273,-67.91666666666667,563.6363636363636,13.875,654.5454545454545,22C745.4545454545454,30.125,781.8181818181818,-30.791666666666668,872.7272727272727,-31C963.6363636363637,-31.208333333333332,1000.0000000000001,20.375,1090.909090909091,21C1181.818181818182,21.625,1218.181818181818,-39.875,1309.090909090909,-28C1400,-16.125,1436.3636363636363,83.83333333333333,1527.2727272727273,78C1618.1818181818182,72.16666666666667,1654.5454545454545,-51.833333333333336,1745.4545454545455,-56C1836.3636363636365,-60.166666666666664,1872.7272727272727,52.166666666666664,1963.6363636363637,58C2054.5454545454545,63.833333333333336,2090.909090909091,-24.666666666666668,2181.818181818182,-28C2272.727272727273,-31.333333333333332,2302.462121212121,-47.16666666666666,2400,42C2497.537878787879,131.16666666666666,3254.1666666666665,221.25,2650,400C2045.8333333333335,578.75,156.25,795.8333333333334,-500,900" transform="matrix(1,0,0,1,0,644)" opacity="0.82"></path><path d="M-10,10C37.53787878787879,10.416666666666666,125.18939393939395,28.666666666666668,218.1818181818182,12C311.17424242424244,-4.666666666666668,345.4545454545455,-72.08333333333333,436.3636363636364,-70C527.2727272727273,-67.91666666666667,563.6363636363636,13.875,654.5454545454545,22C745.4545454545454,30.125,781.8181818181818,-30.791666666666668,872.7272727272727,-31C963.6363636363637,-31.208333333333332,1000.0000000000001,20.375,1090.909090909091,21C1181.818181818182,21.625,1218.181818181818,-39.875,1309.090909090909,-28C1400,-16.125,1436.3636363636363,83.83333333333333,1527.2727272727273,78C1618.1818181818182,72.16666666666667,1654.5454545454545,-51.833333333333336,1745.4545454545455,-56C1836.3636363636365,-60.166666666666664,1872.7272727272727,52.166666666666664,1963.6363636363637,58C2054.5454545454545,63.833333333333336,2090.909090909091,-24.666666666666668,2181.818181818182,-28C2272.727272727273,-31.333333333333332,2302.462121212121,-47.16666666666666,2400,42C2497.537878787879,131.16666666666666,3254.1666666666665,221.25,2650,400C2045.8333333333335,578.75,156.25,795.8333333333334,-500,900" transform="matrix(1,0,0,1,0,690)" opacity="0.88"></path><path d="M-10,10C37.53787878787879,10.416666666666666,125.18939393939395,28.666666666666668,218.1818181818182,12C311.17424242424244,-4.666666666666668,345.4545454545455,-72.08333333333333,436.3636363636364,-70C527.2727272727273,-67.91666666666667,563.6363636363636,13.875,654.5454545454545,22C745.4545454545454,30.125,781.8181818181818,-30.791666666666668,872.7272727272727,-31C963.6363636363637,-31.208333333333332,1000.0000000000001,20.375,1090.909090909091,21C1181.818181818182,21.625,1218.181818181818,-39.875,1309.090909090909,-28C1400,-16.125,1436.3636363636363,83.83333333333333,1527.2727272727273,78C1618.1818181818182,72.16666666666667,1654.5454545454545,-51.833333333333336,1745.4545454545455,-56C1836.3636363636365,-60.166666666666664,1872.7272727272727,52.166666666666664,1963.6363636363637,58C2054.5454545454545,63.833333333333336,2090.909090909091,-24.666666666666668,2181.818181818182,-28C2272.727272727273,-31.333333333333332,2302.462121212121,-47.16666666666666,2400,42C2497.537878787879,131.16666666666666,3254.1666666666665,221.25,2650,400C2045.8333333333335,578.75,156.25,795.8333333333334,-500,900" transform="matrix(1,0,0,1,0,736)" opacity="0.94"></path><path d="M-10,10C37.53787878787879,10.416666666666666,125.18939393939395,28.666666666666668,218.1818181818182,12C311.17424242424244,-4.666666666666668,345.4545454545455,-72.08333333333333,436.3636363636364,-70C527.2727272727273,-67.91666666666667,563.6363636363636,13.875,654.5454545454545,22C745.4545454545454,30.125,781.8181818181818,-30.791666666666668,872.7272727272727,-31C963.6363636363637,-31.208333333333332,1000.0000000000001,20.375,1090.909090909091,21C1181.818181818182,21.625,1218.181818181818,-39.875,1309.090909090909,-28C1400,-16.125,1436.3636363636363,83.83333333333333,1527.2727272727273,78C1618.1818181818182,72.16666666666667,1654.5454545454545,-51.833333333333336,1745.4545454545455,-56C1836.3636363636365,-60.166666666666664,1872.7272727272727,52.166666666666664,1963.6363636363637,58C2054.5454545454545,63.833333333333336,2090.909090909091,-24.666666666666668,2181.818181818182,-28C2272.727272727273,-31.333333333333332,2302.462121212121,-47.16666666666666,2400,42C2497.537878787879,131.16666666666666,3254.1666666666665,221.25,2650,400C2045.8333333333335,578.75,156.25,795.8333333333334,-500,900" transform="matrix(1,0,0,1,0,782)" opacity="1.00"></path></g></svg>