<svg xlink="http://www.w3.org/1999/xlink" viewBox="0 0 5000 5000" xmlns="http://www.w3.org/2000/svg" style="transform: scale(1);"><defs><filter id="goo"><feGaussianBlur in="SourceGraphic" stdDeviation="4.55" result="blur"></feGaussianBlur><feColorMatrix in="blur" type="matrix" values="1 0 0 0 0 0 1 0 0 0 0 0 1 0 0 0 0 0 19 -9" result="good"></feColorMatrix><feComposite in="SourceGraphic" in2="goo" operator="atop"></feComposite></filter><path d="M233,229C249,235 258,237 275,240C279,257 269,273 252,277Q245,290 240,275Q210,255 233,229z" id="P0"></path><path d="M263,265L247,270L231,243L259,232L263,265z" id="P1"></path><path d="M243,284C233,260 231,243 241,216C246,215 250,214 252,215C282,227 289,260 263,283L243,284z" id="P2"></path><path d="M236,243L252,234L260,262L244,265L236,243z" id="P3"></path><path d="M278,230C287,262 262,287 230,278C221,271 216,261 216,248C233,243 236,239 234,220Q263,201 278,230z" id="P4"></path><path d="M259,263L244,265L234,252L245,235L259,263z" id="P5"></path><path d="M260,232L263,266L253,271C244,260 239,254 230,244C235,232 247,227 260,232z" id="P6"></path><path d="M263,262L234,258L232,249L254,233L263,262z" id="P7"></path><path d="M255,278Q242,291 235,274L241,223C245,222 248,221 250,222L255,278z" id="P8"></path><path d="M235,240L258,234L268,251L251,268L235,240z" id="P9"></path></defs><rect id="RECT" width="5000" height="5000" fill="#111"></rect><g id="group" fill="#12F7D6" filter="url(#goo)"><use x="-69" y="-30" href="#P1"></use><use x="-60" y="134" href="#P8"></use><use x="-354" y="477" href="#P6"></use><use x="-372" y="608" href="#P7"></use><use x="106" y="1134" href="#P1"></use><use x="34" y="1507" href="#P4"></use><use x="375" y="1833" href="#P5"></use><use x="207" y="1866" href="#P4"></use><use x="350" y="2312" href="#P2"></use><use x="-1" y="2492" href="#P6"></use><use x="357" y="2823" href="#P4"></use><use x="-55" y="3010" href="#P2"></use><use x="-25" y="3273" href="#P7"></use><use x="97" y="3481" href="#P9"></use><use x="-543" y="4148" href="#P6"></use><use x="-383" y="4381" href="#P2"></use><use x="-247" y="4647" href="#P5"></use><use x="-120" y="4811" href="#P0"></use><use x="-6" y="4761" href="#P4"></use><use x="-80" y="5119" href="#P5"></use><use x="368" y="57" href="#P7"></use><use x="-23" y="103" href="#P3"></use><use x="-189" y="354" href="#P8"></use><use x="229" y="934" href="#P8"></use><use x="612" y="1316" href="#P3"></use><use x="277" y="1330" href="#P7"></use><use x="517" y="1749" href="#P9"></use><use x="422" y="1925" href="#P1"></use><use x="24" y="2228" href="#P0"></use><use x="42" y="2522" href="#P8"></use><use x="47" y="2917" href="#P1"></use><use x="36" y="2958" href="#P8"></use><use x="446" y="3158" href="#P4"></use><use x="627" y="3399" href="#P8"></use><use x="186" y="3919" href="#P8"></use><use x="403" y="4283" href="#P9"></use><use x="-68" y="4821" href="#P5"></use><use x="102" y="5042" href="#P0"></use><use x="463" y="4811" href="#P0"></use><use x="221" y="5197" href="#P6"></use><use x="284" y="-195" href="#P9"></use><use x="233" y="-76" href="#P0"></use><use x="465" y="695" href="#P5"></use><use x="777" y="943" href="#P4"></use><use x="463" y="1058" href="#P6"></use><use x="336" y="1273" href="#P6"></use><use x="287" y="1456" href="#P9"></use><use x="158" y="1909" href="#P9"></use><use x="118" y="2040" href="#P5"></use><use x="54" y="2516" href="#P3"></use><use x="76" y="2866" href="#P9"></use><use x="149" y="3132" href="#P2"></use><use x="184" y="3403" href="#P2"></use><use x="248" y="3582" href="#P6"></use><use x="398" y="3850" href="#P4"></use><use x="561" y="4042" href="#P6"></use><use x="450" y="4600" href="#P7"></use><use x="167" y="5044" href="#P5"></use><use x="452" y="5327" href="#P1"></use><use x="528" y="5402" href="#P1"></use><use x="461" y="-282" href="#P4"></use><use x="807" y="183" href="#P4"></use><use x="1037" y="617" href="#P7"></use><use x="857" y="845" href="#P0"></use><use x="728" y="757" href="#P9"></use><use x="365" y="1276" href="#P2"></use><use x="984" y="1648" href="#P8"></use><use x="1073" y="1970" href="#P5"></use><use x="827" y="2267" href="#P1"></use><use x="853" y="2429" href="#P4"></use><use x="919" y="2867" href="#P9"></use><use x="868" y="3081" href="#P2"></use><use x="352" y="3602" href="#P2"></use><use x="417" y="3818" href="#P1"></use><use x="512" y="3993" href="#P9"></use><use x="646" y="4171" href="#P3"></use><use x="992" y="4263" href="#P0"></use><use x="795" y="4881" href="#P4"></use><use x="614" y="5369" href="#P6"></use><use x="605" y="5421" href="#P8"></use><use x="686" y="-429" href="#P2"></use><use x="1333" y="500" href="#P6"></use><use x="1193" y="696" href="#P7"></use><use x="939" y="571" href="#P7"></use><use x="689" y="829" href="#P1"></use><use x="1169" y="1513" href="#P7"></use><use x="1275" y="1783" href="#P4"></use><use x="1342" y="2150" href="#P7"></use><use x="1050" y="2176" href="#P5"></use><use x="1342" y="2413" href="#P4"></use><use x="1232" y="2633" href="#P7"></use><use x="1085" y="2988" href="#P7"></use><use x="1415" y="3063" href="#P0"></use><use x="1245" y="3400" href="#P0"></use><use x="758" y="4209" href="#P9"></use><use x="838" y="4338" href="#P2"></use><use x="991" y="4501" href="#P7"></use><use x="1265" y="4650" href="#P6"></use><use x="799" y="5504" href="#P3"></use><use x="1028" y="5657" href="#P1"></use><use x="1367" y="-87" href="#P3"></use><use x="1446" y="440" href="#P1"></use><use x="1183" y="382" href="#P9"></use><use x="1057" y="500" href="#P9"></use><use x="1314" y="988" href="#P2"></use><use x="1660" y="1652" href="#P9"></use><use x="1349" y="1550" href="#P5"></use><use x="1262" y="1696" href="#P5"></use><use x="1052" y="2287" href="#P9"></use><use x="1114" y="2664" href="#P2"></use><use x="1123" y="2739" href="#P7"></use><use x="1191" y="3112" href="#P1"></use><use x="1331" y="3411" href="#P7"></use><use x="1453" y="3565" href="#P1"></use><use x="1002" y="4382" href="#P2"></use><use x="1485" y="4044" href="#P0"></use><use x="1256" y="4656" href="#P1"></use><use x="1315" y="4671" href="#P8"></use><use x="1417" y="4980" href="#P7"></use><use x="1098" y="5652" href="#P5"></use><use x="1724" y="-140" href="#P3"></use><use x="1685" y="134" href="#P9"></use><use x="1505" y="261" href="#P6"></use><use x="1717" y="872" href="#P8"></use><use x="1844" y="1099" href="#P8"></use><use x="1686" y="1258" href="#P6"></use><use x="1462" y="1533" href="#P9"></use><use x="1512" y="1604" href="#P9"></use><use x="1595" y="2114" href="#P2"></use><use x="1833" y="2407" href="#P3"></use><use x="1193" y="2793" href="#P2"></use><use x="1290" y="3219" href="#P5"></use><use x="1521" y="3511" href="#P1"></use><use x="1735" y="3777" href="#P9"></use><use x="1781" y="3787" href="#P1"></use><use x="1323" y="4607" href="#P5"></use><use x="1404" y="4685" href="#P1"></use><use x="1814" y="4461" href="#P5"></use><use x="1781" y="4938" href="#P9"></use><use x="1707" y="5346" href="#P1"></use><use x="1951" y="361" href="#P8"></use><use x="1909" y="79" href="#P4"></use><use x="1825" y="195" href="#P8"></use><use x="2081" y="1008" href="#P8"></use><use x="1947" y="1104" href="#P3"></use><use x="1761" y="1197" href="#P0"></use><use x="1670" y="1360" href="#P7"></use><use x="1909" y="2029" href="#P4"></use><use x="2150" y="2291" href="#P1"></use><use x="2066" y="2467" href="#P2"></use><use x="2137" y="2627" href="#P7"></use><use x="1961" y="3105" href="#P8"></use><use x="1603" y="3560" href="#P7"></use><use x="1896" y="3862" href="#P4"></use><use x="1990" y="3903" href="#P6"></use><use x="2078" y="3982" href="#P8"></use><use x="1787" y="4872" href="#P7"></use><use x="1919" y="4927" href="#P7"></use><use x="2038" y="4942" href="#P4"></use><use x="2053" y="5335" href="#P1"></use><use x="2141" y="141" href="#P7"></use><use x="2286" y="8" href="#P0"></use><use x="2203" y="87" href="#P2"></use><use x="2250" y="818" href="#P4"></use><use x="2260" y="1277" href="#P3"></use><use x="2315" y="1059" href="#P3"></use><use x="2114" y="1681" href="#P8"></use><use x="2285" y="1933" href="#P8"></use><use x="2309" y="2308" href="#P8"></use><use x="2050" y="2339" href="#P2"></use><use x="2297" y="2928" href="#P9"></use><use x="2261" y="2893" href="#P4"></use><use x="2234" y="3443" href="#P5"></use><use x="2161" y="3825" href="#P9"></use><use x="2287" y="3959" href="#P6"></use><use x="2294" y="3855" href="#P3"></use><use x="2034" y="4875" href="#P0"></use><use x="2279" y="4983" href="#P2"></use><use x="2130" y="4895" href="#P1"></use><use x="2257" y="5074" href="#P8"></use><use x="2575" y="293" href="#P1"></use><use x="2409" y="22" href="#P3"></use><use x="2609" y="552" href="#P5"></use><use x="2620" y="1052" href="#P9"></use><use x="2499" y="999" href="#P3"></use><use x="2609" y="1094" href="#P6"></use><use x="2487" y="1941" href="#P1"></use><use x="2577" y="2163" href="#P7"></use><use x="2592" y="2055" href="#P9"></use><use x="2277" y="2258" href="#P0"></use><use x="2616" y="2974" href="#P3"></use><use x="2558" y="2745" href="#P1"></use><use x="2411" y="3399" href="#P4"></use><use x="2616" y="3912" href="#P0"></use><use x="2460" y="3969" href="#P5"></use><use x="2572" y="4083" href="#P7"></use><use x="2444" y="4336" href="#P7"></use><use x="2534" y="4987" href="#P1"></use><use x="2482" y="4829" href="#P6"></use><use x="2560" y="4995" href="#P7"></use><use x="2763" y="10" href="#P2"></use><use x="2964" y="62" href="#P6"></use><use x="2856" y="67" href="#P2"></use><use x="2869" y="1037" href="#P1"></use><use x="2759" y="1346" href="#P8"></use><use x="2746" y="1051" href="#P3"></use><use x="2685" y="1852" href="#P9"></use><use x="2654" y="2061" href="#P2"></use><use x="2899" y="2204" href="#P4"></use><use x="2858" y="2662" href="#P0"></use><use x="2802" y="2895" href="#P1"></use><use x="2703" y="2798" href="#P8"></use><use x="2693" y="3130" href="#P8"></use><use x="2805" y="3876" href="#P7"></use><use x="2754" y="3622" href="#P4"></use><use x="2735" y="3789" href="#P8"></use><use x="2684" y="4932" href="#P1"></use><use x="2656" y="4979" href="#P0"></use><use x="2798" y="4962" href="#P9"></use><use x="2779" y="5361" href="#P3"></use><use x="3144" y="35" href="#P8"></use><use x="3252" y="112" href="#P6"></use><use x="3049" y="95" href="#P5"></use><use x="3079" y="634" href="#P2"></use><use x="2922" y="1332" href="#P2"></use><use x="3114" y="1212" href="#P0"></use><use x="3391" y="1470" href="#P9"></use><use x="3132" y="1853" href="#P6"></use><use x="2843" y="2357" href="#P2"></use><use x="2875" y="2431" href="#P8"></use><use x="2818" y="2741" href="#P5"></use><use x="2913" y="2920" href="#P0"></use><use x="3408" y="3549" href="#P5"></use><use x="3195" y="3761" href="#P2"></use><use x="3055" y="3884" href="#P6"></use><use x="3052" y="3902" href="#P8"></use><use x="3298" y="4767" href="#P8"></use><use x="2996" y="4929" href="#P1"></use><use x="2944" y="4626" href="#P0"></use><use x="3286" y="5847" href="#P6"></use><use x="3405" y="197" href="#P4"></use><use x="3180" y="487" href="#P2"></use><use x="3452" y="222" href="#P6"></use><use x="3672" y="379" href="#P7"></use><use x="3366" y="1141" href="#P8"></use><use x="3185" y="1525" href="#P9"></use><use x="3448" y="1459" href="#P2"></use><use x="3520" y="1635" href="#P0"></use><use x="3819" y="2254" href="#P2"></use><use x="3443" y="2530" href="#P2"></use><use x="3262" y="2627" href="#P0"></use><use x="3715" y="3255" href="#P2"></use><use x="3511" y="3504" href="#P3"></use><use x="3310" y="3765" href="#P0"></use><use x="3112" y="3778" href="#P4"></use><use x="3195" y="4117" href="#P9"></use><use x="3577" y="4715" href="#P9"></use><use x="3455" y="4811" href="#P9"></use><use x="3411" y="4800" href="#P3"></use><use x="3494" y="5780" href="#P2"></use><use x="3553" y="180" href="#P1"></use><use x="3594" y="623" href="#P6"></use><use x="3705" y="361" href="#P6"></use><use x="3742" y="397" href="#P5"></use><use x="3456" y="1140" href="#P3"></use><use x="3324" y="1597" href="#P8"></use><use x="3788" y="1718" href="#P4"></use><use x="3811" y="1837" href="#P5"></use><use x="3821" y="2083" href="#P2"></use><use x="3955" y="2622" href="#P0"></use><use x="3919" y="2665" href="#P8"></use><use x="3833" y="3089" href="#P8"></use><use x="3592" y="3531" href="#P2"></use><use x="3366" y="3438" href="#P4"></use><use x="3468" y="3713" href="#P8"></use><use x="3992" y="4405" href="#P1"></use><use x="3807" y="4623" href="#P1"></use><use x="3605" y="4471" href="#P2"></use><use x="3582" y="4858" href="#P8"></use><use x="3647" y="5767" href="#P1"></use><use x="3898" y="-98" href="#P1"></use><use x="3914" y="184" href="#P1"></use><use x="3870" y="413" href="#P9"></use><use x="4073" y="576" href="#P8"></use><use x="4277" y="787" href="#P9"></use><use x="3903" y="1481" href="#P6"></use><use x="3745" y="1829" href="#P4"></use><use x="3852" y="1845" href="#P0"></use><use x="3927" y="2074" href="#P1"></use><use x="4001" y="2398" href="#P6"></use><use x="3770" y="2682" href="#P1"></use><use x="3837" y="3182" href="#P5"></use><use x="3730" y="3107" href="#P0"></use><use x="3673" y="3523" href="#P5"></use><use x="4215" y="4198" href="#P5"></use><use x="4176" y="4337" href="#P3"></use><use x="3812" y="4169" href="#P6"></use><use x="3597" y="4319" href="#P5"></use><use x="3748" y="4906" href="#P3"></use><use x="4132" y="5553" href="#P1"></use><use x="4471" y="-328" href="#P2"></use><use x="4568" y="-254" href="#P8"></use><use x="3925" y="883" href="#P9"></use><use x="4023" y="892" href="#P3"></use><use x="4457" y="1010" href="#P7"></use><use x="4505" y="1083" href="#P4"></use><use x="4125" y="1709" href="#P0"></use><use x="3841" y="2048" href="#P7"></use><use x="3964" y="2246" href="#P6"></use><use x="4233" y="2600" href="#P0"></use><use x="4033" y="2665" href="#P8"></use><use x="3887" y="2928" href="#P2"></use><use x="4233" y="3436" href="#P7"></use><use x="4425" y="3992" href="#P8"></use><use x="4321" y="4182" href="#P6"></use><use x="4309" y="4237" href="#P1"></use><use x="4059" y="4162" href="#P1"></use><use x="4176" y="4850" href="#P0"></use><use x="4462" y="5334" href="#P9"></use><use x="4394" y="5420" href="#P6"></use><use x="4688" y="-186" href="#P4"></use><use x="4765" y="-130" href="#P5"></use><use x="4311" y="496" href="#P6"></use><use x="4422" y="934" href="#P7"></use><use x="4569" y="1081" href="#P7"></use><use x="4662" y="1234" href="#P5"></use><use x="4822" y="1642" href="#P7"></use><use x="4856" y="1898" href="#P1"></use><use x="4939" y="2272" href="#P6"></use><use x="4384" y="2559" href="#P4"></use><use x="4929" y="2721" href="#P1"></use><use x="4803" y="3281" href="#P9"></use><use x="4742" y="3480" href="#P1"></use><use x="4695" y="3685" href="#P1"></use><use x="4536" y="3925" href="#P1"></use><use x="4425" y="4096" href="#P6"></use><use x="4511" y="4332" href="#P4"></use><use x="4835" y="4990" href="#P7"></use><use x="4628" y="5257" href="#P3"></use><use x="4349" y="4917" href="#P6"></use><use x="4674" y="115" href="#P3"></use><use x="5049" y="115" href="#P4"></use><use x="4987" y="104" href="#P1"></use><use x="4814" y="774" href="#P6"></use><use x="4415" y="1272" href="#P8"></use><use x="4590" y="1360" href="#P3"></use><use x="4638" y="1723" href="#P1"></use><use x="4887" y="1798" href="#P5"></use><use x="4972" y="2222" href="#P5"></use><use x="4990" y="2418" href="#P0"></use><use x="4965" y="2760" href="#P5"></use><use x="4871" y="3237" href="#P5"></use><use x="4889" y="3248" href="#P0"></use><use x="4543" y="3516" href="#P2"></use><use x="4508" y="3684" href="#P9"></use><use x="4750" y="4305" href="#P9"></use><use x="4633" y="4428" href="#P1"></use><use x="4911" y="5000" href="#P4"></use><use x="4484" y="4805" href="#P8"></use><use x="4697" y="5077" href="#P6"></use><use x="5026" y="135" href="#P5"></use><use x="5163" y="257" href="#P3"></use><use x="5216" y="339" href="#P3"></use><use x="5384" y="577" href="#P0"></use><use x="5485" y="736" href="#P8"></use><use x="5199" y="1347" href="#P0"></use><use x="5056" y="1584" href="#P4"></use><use x="4969" y="1885" href="#P3"></use><use x="4894" y="2149" href="#P6"></use><use x="4653" y="2610" href="#P5"></use><use x="5029" y="2825" href="#P9"></use><use x="5039" y="2985" href="#P4"></use><use x="4778" y="3183" href="#P8"></use><use x="5081" y="3634" href="#P6"></use><use x="5052" y="3854" href="#P2"></use><use x="5474" y="4294" href="#P5"></use><use x="5365" y="4493" href="#P0"></use><use x="4893" y="4458" href="#P0"></use><use x="4842" y="4732" href="#P2"></use><use x="4950" y="5231" href="#P4"></use></g></svg>