<svg xmlns="http://www.w3.org/2000/svg" xml:space="preserve" width="1500" height="366" data-id="lg_UozqxMPoFENuoRlkNv" data-version="1" viewBox="0 0 1500 366"><g data-padding="20"><g transform="translate(10 10.339)scale(.9435)"><g transform="translate(400 400)scale(3.54)"><filter id="a" width="158%" height="158%" x="-29%" y="-29%"><feGaussianBlur in="SourceAlpha" stdDeviation="3"/><feOffset dx="3" dy="3" result="oBlur"/><feFlood flood-color="#fff" flood-opacity="1"/><feComposite in2="oBlur" operator="in"/><feMerge><feMergeNode/><feMergeNode in="SourceGraphic"/></feMerge></filter><path fill="#292f36" stroke="#12f7d6" stroke-width="5" d="M108.563-113.006a50 50 0 1 0 0 100 50 50 0 1 0 0-100Z" filter="url(#a)" paint-order="stroke"/></g><rect width="277" height="349.17" x="245.811" y="-397.628" fill="none" rx="0" ry="0" transform="translate(412.5 414.5)"/><path fill="#12f7d6" d="M725.721 205.647q.6 1.51 4.52 6.49t8.9 10.86 9.81 11.32q4.83 5.43 6.64 7.84 5.73 8.45 11.77 16.6 6.03 8.15 11.46 16.9 1.51 1.51 2.42 3.77.9 2.26.9 4.68 0 2.71-1.35 2.86-1.36.15-2.87.76-3.02 2.11-5.43 2.41-2.42.3-3.92.3-3.32 0-7.25-.15-3.92-.15-6.64.46-.9.3-2.11 1.05-1.21.76-1.81.76-2.41 0-3.47-.76-1.05-.75-2.87-1.36-2.41-2.71-4.37-5.73t-4.07-6.04q-1.82-2.11-3.93-3.77t-3.92-4.07q-4.83-6.94-9.81-13.28t-10.11-12.67q-2.41-3.32-5.28-6.34-2.86-3.02-5.28-6.03-2.41-3.32-4.52-6.94-2.12-3.63-4.53-6.95-1.81-3.01-5.13-7.39-3.32-4.37-6.94-8.9t-7.39-8.6q-3.78-4.07-6.49-6.19 0-2.11-1.21-3.01-1.21-.91-2.71-2.12-.61-1.5-1.51-2.86-.91-1.36-.91-3.17 0-1.21.3-2.11.3-.91.61-1.81.6-1.21.75-2.27.15-1.05.76-2.26 1.5-3.92 4.37-6.94t4.38-6.94q.3-1.21.3-2.26 0-1.06.6-2.27.91-1.81 2.72-3.62t3.32-3.92q1.51-2.72 3.01-5.43 1.51-2.72 3.02-5.43 4.23-6.95 9.36-13.43 5.13-6.49 9.65-12.83 4.23-6.03 7.85-11.92 3.62-5.88 7.84-11.92 2.12-3.01 4.83-6.79 2.72-3.77 5.58-7.39 2.87-3.62 5.89-6.79t6.03-4.68q5.13-.6 6.64 1.66 1.51 2.27 4.23 2.27 4.22.9 5.73 2.71t3.02 3.32q3.92 0 6.64 1.51 2.71 1.51 5.43 4.53-1.21 3.32-3.17 6.03-1.96 2.72-3.47 5.74-2.41.9-3.47 3.01-1.06 2.12-3.17 3.62-3.32 5.13-6.64 10.11t-6.64 9.51q-1.5 1.81-3.47 2.87-1.96 1.05-3.16 3.16-.61.91-.91 1.97-.3 1.05-.91 1.96-3.62 5.73-8.14 11.16-4.53 5.43-7.85 11.47-1.51 2.11-2.41 4.37-.91 2.27-2.11 4.38-1.21 1.81-3.48 5.13-2.26 3.32-4.52 6.79t-3.92 6.64-1.66 5.28q.3 1.51 3.92 6.03 3.62 4.53 8 9.66 4.37 5.13 8.44 9.66 4.08 4.52 5.29 5.73m95.95-137q1.21-.3 2.12-.9.9-.61 2.11-.61.9.3 1.36 1.21.45.9 1.35 1.51.91-.61 1.66-1.21.76-.6 1.66-.9 3.02.9 3.32 3.01 1.51.61 2.72 1.36 1.21.76 2.72 1.06.6 1.2 1.5 1.81.91.6 2.12 1.81 3.01.6 7.99 3.32 4.98 2.71 8 4.22t6.03 3.02q3.02 1.51 5.74 3.32 2.71 1.51 5.43 3.47t5.73 3.17q2.72 3.32 6.94 4.22 4.23.91 7.55 3.32 2.71 1.51 5.13 3.17 2.41 1.66 4.83 3.17.9 1.51 2.26 2.41 1.36.91 2.56 2.42 6.04 3.32 6.94 5.13.91.6 2.72 1.81 1.81 1.2 3.62 2.56t3.32 2.72 1.81 2.56q-1.21 2.72-1.21 4.38t-1.2 2.87q1.81 2.41 1.81 4.52-1.51 3.62-5.13 6.04-.91 2.41-2.87 3.77t-2.56 3.77q-2.42 1.51-2.87 2.42-.45.9-1.06 1.81-5.73 6.03-10.71 10.41-4.98 4.37-9.2 9.5-3.02 1.51-5.13 3.77-2.12 2.27-3.93 4.98-2.41 2.42-4.67 4.68-2.27 2.26-4.68 4.38-.6 1.2-1.96 1.96-1.36.75-1.96 2.26-3.32 1.51-5.43 4.22-2.12 2.72-5.13 4.53l-2.12 3.02q-.9.6-2.56 1.96t-3.32 3.02-2.87 3.17q-1.2 1.5-1.51 2.41-.9.3-2.86 1.81t-3.93 3.32q-1.96 1.81-3.62 3.62t-1.96 2.42l-3.02 2.11q.31 8.14.46 16.44t.15 16.45v10.26l-2.12 2.71q-1.5 0-2.41-.6-.9-.6-2.11-.6t-2.26 1.2q-1.06 1.21-1.97 1.82-2.11.3-3.47 1.05-1.35.76-2.86 1.36-1.81-.91-3.62-.91-3.93.91-3.78.31.15-.61-1.35-.61-2.42 2.42-3.02 2.42-1.21 0-2.26.3-1.06.3-2.27.3-1.21-2.41-1.96-4.98-.75-2.56-2.87-4.98.91-3.02-.3-4.22 1.81-3.32 1.51-7.55-.3-4.22-.3-7.84 0-2.11.15-4.08.15-1.96.15-3.77 0-3.62-.6-7.39-.61-3.77-.61-7.7 0-9.05.61-18.25.6-9.21.6-18.26 0-5.13-.45-10.56t-.45-10.56q0-3.32.3-6.19.3-2.86.6-5.58 0-13.88.45-26.71.46-12.82.46-25.49 0-4.23-.15-8-.16-3.77-.16-8 0-2.11.31-4.22.3-2.11.3-4.23.9-9.35.9-18.71l-.3-4.82q1.21-1.81 3.62-1.81 3.32 0 5.13 2.11 2.11-.3 4.08-.76 1.96-.45 3.77-.45 2.71 0 4.52 1.81m18.41 47.08-.6.9q0 1.51-.3 2.26-.31.76-.61 1.36 0 .91.15 1.96.15 1.06.15 2.27 0 6.94-.15 13.73t-.15 13.42l-.6 16q0 1.51.3 3.32t.3 3.32-.3 3.01q-.3 1.51-.3 3.02 0 3.92.9 7.85 1.51-.61 2.12-1.96.6-1.36 1.51-2.27 6.94-6.33 12.97-13.27 6.04-6.94 12.37-13.89 5.44-5.73 9.36-9.35t6.03-8.75q-5.13-3.32-10.56-6.79t-11.47-5.88q-.3-.61-1.65-1.51-1.36-.91-2.87-1.66-1.51-.76-3.02-1.36t-2.11-.6q-2.72-2.42-5.73-3.02-2.12 0-3.63-.76-1.5-.75-2.11-1.35"/></g><path fill="transparent" stroke="transparent" d="M573 0h354v366H573z"/></g></svg>